<?xml version="1.0" encoding="utf-8"?>
<!-- Generator: Adobe Illustrator 18.0.0, SVG Export Plug-In . SVG Version: 6.00 Build 0)  -->
<!DOCTYPE svg PUBLIC "-//W3C//DTD SVG 1.0//EN" "http://www.w3.org/TR/2001/REC-SVG-20010904/DTD/svg10.dtd">
<svg version="1.0" id="Default" xmlns="http://www.w3.org/2000/svg" xmlns:xlink="http://www.w3.org/1999/xlink" x="0px" y="0px"
	 viewBox="0 0 566.9 566.9" enable-background="new 0 0 566.9 566.9" xml:space="preserve">
<line fill="none" stroke="#000000" stroke-width="1.5" stroke-linecap="round" stroke-linejoin="round" x1="385.5" y1="179.5" x2="182.5" y2="179.5"/>
<line fill="none" stroke="#000000" stroke-width="2.5" stroke-linecap="round" stroke-linejoin="round" x1="39" y1="36" x2="182.5" y2="382.5"/>
<line fill="none" stroke="#000000" stroke-width="2.5" stroke-linecap="round" stroke-linejoin="round" x1="39" y1="526" x2="182.5" y2="179.5"/>
<line fill="none" stroke="#000000" stroke-width="2.5" stroke-linecap="round" stroke-linejoin="round" x1="385.5" y1="382.5" x2="39" y2="526"/>
<line fill="none" stroke="#000000" stroke-width="2.5" stroke-linecap="round" stroke-linejoin="round" x1="529" y1="526" x2="182.5" y2="382.5"/>
<line fill="none" stroke="#000000" stroke-width="2.5" stroke-linecap="round" stroke-linejoin="round" x1="385.5" y1="179.5" x2="529" y2="526"/>
<line fill="none" stroke="#000000" stroke-width="2.5" stroke-linecap="round" stroke-linejoin="round" x1="529" y1="36" x2="385.5" y2="382.5"/>
<line fill="none" stroke="#000000" stroke-width="2.5" stroke-linecap="round" stroke-linejoin="round" x1="182.5" y1="179.5" x2="529" y2="36"/>
<line fill="none" stroke="#000000" stroke-width="1.5" stroke-linecap="round" stroke-linejoin="round" x1="39" y1="526" x2="182.5" y2="382.5"/>
<line fill="none" stroke="#000000" stroke-width="1.5" stroke-linecap="round" stroke-linejoin="round" x1="529" y1="526" x2="385.5" y2="382.5"/>
<line fill="none" stroke="#000000" stroke-width="1.5" stroke-linecap="round" stroke-linejoin="round" x1="529" y1="36" x2="385.5" y2="179.5"/>
<line fill="none" stroke="#000000" stroke-width="1.5" stroke-linecap="round" stroke-linejoin="round" x1="39" y1="36" x2="182.5" y2="179.5"/>
<line fill="none" stroke="#000000" stroke-width="1.5" stroke-linecap="round" stroke-linejoin="round" x1="182.5" y1="382.5" x2="385.5" y2="382.5"/>
<line fill="none" stroke="#000000" stroke-width="1.5" stroke-linecap="round" stroke-linejoin="round" x1="385.5" y1="382.5" x2="385.5" y2="179.5"/>
<line fill="none" stroke="#000000" stroke-width="1.5" stroke-linecap="round" stroke-linejoin="round" x1="182.5" y1="179.5" x2="182.5" y2="382.5"/>
<line fill="none" stroke="#000000" stroke-width="2.5" stroke-linecap="round" stroke-linejoin="round" x1="39" y1="36" x2="385.5" y2="179.5"/>
<ellipse fill="#F97D0D" cx="529" cy="36" rx="4.9" ry="5.4"/>
<ellipse fill="#F97D0D" cx="529" cy="526" rx="4.9" ry="5.4"/>
<ellipse fill="#F97D0D" cx="39" cy="526" rx="4.9" ry="5.4"/>
<ellipse fill="#F97D0D" cx="39" cy="36" rx="4.9" ry="5.4"/>
<ellipse fill="#F97D0D" cx="182.5" cy="179.5" rx="4.9" ry="5.4"/>
<ellipse fill="#F97D0D" cx="385.5" cy="179.5" rx="4.9" ry="5.4"/>
<ellipse fill="#F97D0D" cx="385.5" cy="382.5" rx="4.9" ry="5.4"/>
<ellipse fill="#F97D0D" cx="182.5" cy="382.5" rx="4.9" ry="5.4"/>
</svg>
